<svg xmlns="http://www.w3.org/2000/svg" xmlns:xlink="http://www.w3.org/1999/xlink" width="47" height="311" viewBox="0 0 47 311"><defs><style>.a,.d,.e,.f{fill:#fff;}.a{opacity:0.276;}.b{clip-path:url(#a);}.c{opacity:0.046;}.d{opacity:0.685;}.e{opacity:0.875;}.f{opacity:0.998;}</style><clipPath id="a"><rect class="a" width="47" height="311" transform="translate(399 441)"/></clipPath></defs><g class="b" transform="translate(-399 -441)"><g class="c" transform="translate(-55.99 93)"><circle class="d" cx="7" cy="7" r="7" transform="translate(842.99 404)"/><circle class="d" cx="7" cy="7" r="7" transform="translate(842.99 360)"/><circle class="e" cx="8" cy="8" r="8" transform="translate(842.99 452)"/><circle class="f" cx="9" cy="9" r="9" transform="translate(842.99 499)"/><circle class="f" cx="9" cy="9" r="9" transform="translate(842.99 539)"/><circle class="f" cx="9" cy="9" r="9" transform="translate(842.99 580)"/><circle class="f" cx="9" cy="9" r="9" transform="translate(842.99 630)"/><circle class="d" cx="7" cy="7" r="7" transform="translate(1163.99 404)"/><circle class="d" cx="7" cy="7" r="7" transform="translate(1163.99 360)"/><circle class="e" cx="8" cy="8" r="8" transform="translate(1163.99 452)"/><circle class="f" cx="9" cy="9" r="9" transform="translate(1163.99 499)"/><circle class="f" cx="9" cy="9" r="9" transform="translate(1163.99 539)"/><circle class="f" cx="9" cy="9" r="9" transform="translate(1163.99 580)"/><circle class="f" cx="9" cy="9" r="9" transform="translate(1163.99 630)"/><circle class="d" cx="7" cy="7" r="7" transform="translate(1487.99 404)"/><circle class="d" cx="7" cy="7" r="7" transform="translate(1487.99 360)"/><circle class="e" cx="8" cy="8" r="8" transform="translate(1487.99 452)"/><circle class="f" cx="9" cy="9" r="9" transform="translate(1488.99 499)"/><circle class="f" cx="9" cy="9" r="9" transform="translate(1488.99 539)"/><circle class="f" cx="9" cy="9" r="9" transform="translate(1488.99 580)"/><circle class="f" cx="9" cy="9" r="9" transform="translate(1488.99 630)"/><circle class="d" cx="7" cy="7" r="7" transform="translate(517.99 404)"/><circle class="d" cx="7" cy="7" r="7" transform="translate(517.99 360)"/><circle class="e" cx="8" cy="8" r="8" transform="translate(517.99 452)"/><circle class="f" cx="9" cy="9" r="9" transform="translate(517.99 499)"/><circle class="f" cx="9" cy="9" r="9" transform="translate(517.99 539)"/><circle class="f" cx="9" cy="9" r="9" transform="translate(517.99 580)"/><circle class="f" cx="9" cy="9" r="9" transform="translate(517.99 630)"/><circle class="d" cx="7" cy="7" r="7" transform="translate(55.99 404)"/><circle class="d" cx="7" cy="7" r="7" transform="translate(55.99 360)"/><circle class="e" cx="8" cy="8" r="8" transform="translate(55.99 452)"/><circle class="f" cx="9" cy="9" r="9" transform="translate(55.99 499)"/><circle class="f" cx="9" cy="9" r="9" transform="translate(55.99 539)"/><circle class="f" cx="9" cy="9" r="9" transform="translate(55.99 580)"/><circle class="f" cx="9" cy="9" r="9" transform="translate(55.99 630)"/><circle class="d" cx="7" cy="7" r="7" transform="translate(887.99 404)"/><circle class="d" cx="7" cy="7" r="7" transform="translate(887.99 360)"/><circle class="e" cx="8" cy="8" r="8" transform="translate(887.99 452)"/><circle class="f" cx="9" cy="9" r="9" transform="translate(887.99 499)"/><circle class="f" cx="9" cy="9" r="9" transform="translate(887.99 539)"/><circle class="f" cx="9" cy="9" r="9" transform="translate(887.99 580)"/><circle class="f" cx="9" cy="9" r="9" transform="translate(887.99 630)"/><circle class="d" cx="7" cy="7" r="7" transform="translate(1211.99 404)"/><circle class="d" cx="7" cy="7" r="7" transform="translate(1211.99 360)"/><circle class="e" cx="8" cy="8" r="8" transform="translate(1211.99 452)"/><circle class="f" cx="9" cy="9" r="9" transform="translate(1211.99 499)"/><circle class="f" cx="9" cy="9" r="9" transform="translate(1211.99 539)"/><circle class="f" cx="9" cy="9" r="9" transform="translate(1211.99 580)"/><circle class="f" cx="9" cy="9" r="9" transform="translate(1211.99 630)"/><circle class="d" cx="7" cy="7" r="7" transform="translate(1534.99 404)"/><circle class="d" cx="7" cy="7" r="7" transform="translate(1534.99 360)"/><circle class="e" cx="8" cy="8" r="8" transform="translate(1535.99 452)"/><circle class="f" cx="9" cy="9" r="9" transform="translate(1535.99 499)"/><circle class="f" cx="9" cy="9" r="9" transform="translate(1535.99 539)"/><circle class="f" cx="9" cy="9" r="9" transform="translate(1535.99 580)"/><circle class="f" cx="9" cy="9" r="9" transform="translate(1535.99 630)"/><circle class="d" cx="7" cy="7" r="7" transform="translate(564.99 404)"/><circle class="d" cx="7" cy="7" r="7" transform="translate(564.99 360)"/><circle class="e" cx="8" cy="8" r="8" transform="translate(564.99 452)"/><circle class="f" cx="9" cy="9" r="9" transform="translate(564.99 499)"/><circle class="f" cx="9" cy="9" r="9" transform="translate(564.99 539)"/><circle class="f" cx="9" cy="9" r="9" transform="translate(564.99 580)"/><circle class="f" cx="9" cy="9" r="9" transform="translate(564.99 630)"/><circle class="d" cx="7" cy="7" r="7" transform="translate(99.99 404)"/><circle class="d" cx="7" cy="7" r="7" transform="translate(99.99 360)"/><circle class="e" cx="8" cy="8" r="8" transform="translate(99.99 452)"/><circle class="f" cx="9" cy="9" r="9" transform="translate(99.99 499)"/><circle class="f" cx="9" cy="9" r="9" transform="translate(99.99 539)"/><circle class="f" cx="9" cy="9" r="9" transform="translate(99.99 580)"/><circle class="f" cx="9" cy="9" r="9" transform="translate(99.99 630)"/><circle class="d" cx="7" cy="7" r="7" transform="translate(232.99 404)"/><circle class="d" cx="7" cy="7" r="7" transform="translate(232.99 360)"/><circle class="e" cx="8" cy="8" r="8" transform="translate(232.99 452)"/><circle class="f" cx="9" cy="9" r="9" transform="translate(232.99 499)"/><circle class="f" cx="9" cy="9" r="9" transform="translate(232.99 539)"/><circle class="f" cx="9" cy="9" r="9" transform="translate(232.99 580)"/><circle class="f" cx="9" cy="9" r="9" transform="translate(232.99 630)"/><circle class="d" cx="7" cy="7" r="7" transform="translate(933.99 404)"/><circle class="d" cx="7" cy="7" r="7" transform="translate(933.99 360)"/><circle class="e" cx="8" cy="8" r="8" transform="translate(933.99 452)"/><circle class="f" cx="9" cy="9" r="9" transform="translate(933.99 499)"/><circle class="f" cx="9" cy="9" r="9" transform="translate(933.99 539)"/><circle class="f" cx="9" cy="9" r="9" transform="translate(933.99 580)"/><circle class="f" cx="9" cy="9" r="9" transform="translate(933.99 630)"/><circle class="d" cx="7" cy="7" r="7" transform="translate(1256.99 404)"/><circle class="d" cx="7" cy="7" r="7" transform="translate(1256.99 360)"/><circle class="e" cx="8" cy="8" r="8" transform="translate(1256.99 452)"/><circle class="f" cx="9" cy="9" r="9" transform="translate(1256.99 499)"/><circle class="f" cx="9" cy="9" r="9" transform="translate(1256.99 539)"/><circle class="f" cx="9" cy="9" r="9" transform="translate(1256.99 580)"/><circle class="f" cx="9" cy="9" r="9" transform="translate(1256.99 630)"/><circle class="d" cx="7" cy="7" r="7" transform="translate(1581.99 404)"/><circle class="d" cx="7" cy="7" r="7" transform="translate(1581.99 360)"/><circle class="e" cx="8" cy="8" r="8" transform="translate(1581.99 452)"/><circle class="f" cx="9" cy="9" r="9" transform="translate(1581.99 499)"/><circle class="f" cx="9" cy="9" r="9" transform="translate(1581.99 539)"/><circle class="f" cx="9" cy="9" r="9" transform="translate(1581.99 580)"/><circle class="f" cx="9" cy="9" r="9" transform="translate(1581.99 630)"/><circle class="d" cx="7" cy="7" r="7" transform="translate(610.99 404)"/><circle class="d" cx="7" cy="7" r="7" transform="translate(610.99 360)"/><circle class="e" cx="8" cy="8" r="8" transform="translate(610.99 452)"/><circle class="f" cx="9" cy="9" r="9" transform="translate(610.99 499)"/><circle class="f" cx="9" cy="9" r="9" transform="translate(610.99 539)"/><circle class="f" cx="9" cy="9" r="9" transform="translate(610.99 580)"/><circle class="f" cx="9" cy="9" r="9" transform="translate(610.99 630)"/><circle class="d" cx="7" cy="7" r="7" transform="translate(144.99 404)"/><circle class="d" cx="7" cy="7" r="7" transform="translate(144.99 360)"/><circle class="e" cx="8" cy="8" r="8" transform="translate(144.99 452)"/><circle class="f" cx="9" cy="9" r="9" transform="translate(144.99 499)"/><circle class="f" cx="9" cy="9" r="9" transform="translate(144.99 539)"/><circle class="f" cx="9" cy="9" r="9" transform="translate(144.99 580)"/><circle class="f" cx="9" cy="9" r="9" transform="translate(144.99 630)"/><circle class="d" cx="7" cy="7" r="7" transform="translate(276.99 404)"/><circle class="d" cx="7" cy="7" r="7" transform="translate(276.99 360)"/><circle class="e" cx="8" cy="8" r="8" transform="translate(276.99 452)"/><circle class="f" cx="9" cy="9" r="9" transform="translate(276.99 499)"/><circle class="f" cx="9" cy="9" r="9" transform="translate(276.99 539)"/><circle class="f" cx="9" cy="9" r="9" transform="translate(276.99 580)"/><circle class="f" cx="9" cy="9" r="9" transform="translate(276.99 630)"/><circle class="d" cx="7" cy="7" r="7" transform="translate(979.99 404)"/><circle class="d" cx="7" cy="7" r="7" transform="translate(979.99 360)"/><circle class="e" cx="8" cy="8" r="8" transform="translate(979.99 452)"/><circle class="f" cx="9" cy="9" r="9" transform="translate(979.99 499)"/><circle class="f" cx="9" cy="9" r="9" transform="translate(979.99 539)"/><circle class="f" cx="9" cy="9" r="9" transform="translate(979.99 580)"/><circle class="f" cx="9" cy="9" r="9" transform="translate(979.99 630)"/><circle class="d" cx="7" cy="7" r="7" transform="translate(1302.99 404)"/><circle class="d" cx="7" cy="7" r="7" transform="translate(1302.99 360)"/><circle class="e" cx="8" cy="8" r="8" transform="translate(1302.99 452)"/><circle class="f" cx="9" cy="9" r="9" transform="translate(1302.99 499)"/><circle class="f" cx="9" cy="9" r="9" transform="translate(1302.99 539)"/><circle class="f" cx="9" cy="9" r="9" transform="translate(1302.99 580)"/><circle class="f" cx="9" cy="9" r="9" transform="translate(1302.99 630)"/><circle class="d" cx="7" cy="7" r="7" transform="translate(1640.99 404)"/><circle class="d" cx="7" cy="7" r="7" transform="translate(1640.99 360)"/><circle class="e" cx="8" cy="8" r="8" transform="translate(1640.99 452)"/><circle class="f" cx="9" cy="9" r="9" transform="translate(1640.99 499)"/><circle class="f" cx="9" cy="9" r="9" transform="translate(1640.99 539)"/><circle class="f" cx="9" cy="9" r="9" transform="translate(1640.99 580)"/><circle class="f" cx="9" cy="9" r="9" transform="translate(1640.99 630)"/><circle class="d" cx="7" cy="7" r="7" transform="translate(1817.99 404)"/><circle class="d" cx="7" cy="7" r="7" transform="translate(1817.99 360)"/><circle class="e" cx="8" cy="8" r="8" transform="translate(1817.99 452)"/><circle class="f" cx="9" cy="9" r="9" transform="translate(1817.99 499)"/><circle class="f" cx="9" cy="9" r="9" transform="translate(1817.99 539)"/><circle class="f" cx="9" cy="9" r="9" transform="translate(1817.99 580)"/><circle class="f" cx="9" cy="9" r="9" transform="translate(1817.99 630)"/><circle class="d" cx="7" cy="7" r="7" transform="translate(656.99 404)"/><circle class="d" cx="7" cy="7" r="7" transform="translate(656.99 360)"/><circle class="e" cx="8" cy="8" r="8" transform="translate(656.99 452)"/><circle class="f" cx="9" cy="9" r="9" transform="translate(656.99 499)"/><circle class="f" cx="9" cy="9" r="9" transform="translate(656.99 539)"/><circle class="f" cx="9" cy="9" r="9" transform="translate(656.99 580)"/><circle class="f" cx="9" cy="9" r="9" transform="translate(656.99 630)"/><circle class="d" cx="7" cy="7" r="7" transform="translate(188.99 404)"/><circle class="d" cx="7" cy="7" r="7" transform="translate(188.99 360)"/><circle class="e" cx="8" cy="8" r="8" transform="translate(188.99 452)"/><circle class="f" cx="9" cy="9" r="9" transform="translate(188.99 499)"/><circle class="f" cx="9" cy="9" r="9" transform="translate(188.99 539)"/><circle class="f" cx="9" cy="9" r="9" transform="translate(188.99 580)"/><circle class="f" cx="9" cy="9" r="9" transform="translate(188.99 630)"/><circle class="d" cx="7" cy="7" r="7" transform="translate(321.99 404)"/><circle class="d" cx="7" cy="7" r="7" transform="translate(321.99 360)"/><circle class="e" cx="8" cy="8" r="8" transform="translate(321.99 452)"/><circle class="f" cx="9" cy="9" r="9" transform="translate(321.99 499)"/><circle class="f" cx="9" cy="9" r="9" transform="translate(321.99 539)"/><circle class="f" cx="9" cy="9" r="9" transform="translate(321.99 580)"/><circle class="f" cx="9" cy="9" r="9" transform="translate(321.99 630)"/><circle class="d" cx="7" cy="7" r="7" transform="translate(1026.99 404)"/><circle class="d" cx="7" cy="7" r="7" transform="translate(1026.99 360)"/><circle class="e" cx="8" cy="8" r="8" transform="translate(1026.99 452)"/><circle class="f" cx="9" cy="9" r="9" transform="translate(1026.99 499)"/><circle class="f" cx="9" cy="9" r="9" transform="translate(1026.99 539)"/><circle class="f" cx="9" cy="9" r="9" transform="translate(1026.99 580)"/><circle class="f" cx="9" cy="9" r="9" transform="translate(1026.99 630)"/><circle class="d" cx="7" cy="7" r="7" transform="translate(1350.99 404)"/><circle class="d" cx="7" cy="7" r="7" transform="translate(1350.99 360)"/><circle class="e" cx="8" cy="8" r="8" transform="translate(1350.99 452)"/><circle class="f" cx="9" cy="9" r="9" transform="translate(1350.99 499)"/><circle class="f" cx="9" cy="9" r="9" transform="translate(1350.99 539)"/><circle class="f" cx="9" cy="9" r="9" transform="translate(1350.99 580)"/><circle class="f" cx="9" cy="9" r="9" transform="translate(1350.99 630)"/><circle class="d" cx="7" cy="7" r="7" transform="translate(1684.99 404)"/><circle class="d" cx="7" cy="7" r="7" transform="translate(1684.99 360)"/><circle class="e" cx="8" cy="8" r="8" transform="translate(1684.99 452)"/><circle class="f" cx="9" cy="9" r="9" transform="translate(1684.99 499)"/><circle class="f" cx="9" cy="9" r="9" transform="translate(1684.99 539)"/><circle class="f" cx="9" cy="9" r="9" transform="translate(1684.99 580)"/><circle class="f" cx="9" cy="9" r="9" transform="translate(1684.99 630)"/><circle class="d" cx="7" cy="7" r="7" transform="translate(1861.99 404)"/><circle class="d" cx="7" cy="7" r="7" transform="translate(1861.99 360)"/><circle class="e" cx="8" cy="8" r="8" transform="translate(1861.99 452)"/><circle class="f" cx="9" cy="9" r="9" transform="translate(1861.99 499)"/><circle class="f" cx="9" cy="9" r="9" transform="translate(1861.99 539)"/><circle class="f" cx="9" cy="9" r="9" transform="translate(1861.99 580)"/><circle class="f" cx="9" cy="9" r="9" transform="translate(1861.99 630)"/><circle class="d" cx="7" cy="7" r="7" transform="translate(703.99 404)"/><circle class="d" cx="7" cy="7" r="7" transform="translate(703.99 360)"/><circle class="e" cx="8" cy="8" r="8" transform="translate(703.99 452)"/><circle class="f" cx="9" cy="9" r="9" transform="translate(703.99 499)"/><circle class="f" cx="9" cy="9" r="9" transform="translate(703.99 539)"/><circle class="f" cx="9" cy="9" r="9" transform="translate(703.99 580)"/><circle class="f" cx="9" cy="9" r="9" transform="translate(703.99 630)"/><circle class="d" cx="7" cy="7" r="7" transform="translate(365.99 404)"/><circle class="d" cx="7" cy="7" r="7" transform="translate(365.99 360)"/><circle class="e" cx="8" cy="8" r="8" transform="translate(365.99 452)"/><circle class="f" cx="9" cy="9" r="9" transform="translate(365.99 499)"/><circle class="f" cx="9" cy="9" r="9" transform="translate(365.99 539)"/><circle class="f" cx="9" cy="9" r="9" transform="translate(365.99 580)"/><circle class="f" cx="9" cy="9" r="9" transform="translate(365.99 630)"/><circle class="d" cx="7" cy="7" r="7" transform="translate(1072.99 404)"/><circle class="d" cx="7" cy="7" r="7" transform="translate(1072.99 360)"/><circle class="e" cx="8" cy="8" r="8" transform="translate(1072.99 452)"/><circle class="f" cx="9" cy="9" r="9" transform="translate(1072.99 499)"/><circle class="f" cx="9" cy="9" r="9" transform="translate(1072.99 539)"/><circle class="f" cx="9" cy="9" r="9" transform="translate(1072.99 580)"/><circle class="f" cx="9" cy="9" r="9" transform="translate(1072.99 630)"/><circle class="d" cx="7" cy="7" r="7" transform="translate(1395.99 404)"/><circle class="d" cx="7" cy="7" r="7" transform="translate(1395.99 360)"/><circle class="e" cx="8" cy="8" r="8" transform="translate(1395.99 452)"/><circle class="f" cx="9" cy="9" r="9" transform="translate(1395.99 499)"/><circle class="f" cx="9" cy="9" r="9" transform="translate(1395.99 539)"/><circle class="f" cx="9" cy="9" r="9" transform="translate(1395.99 580)"/><circle class="f" cx="9" cy="9" r="9" transform="translate(1395.99 630)"/><circle class="d" cx="7" cy="7" r="7" transform="translate(1729.99 404)"/><circle class="d" cx="7" cy="7" r="7" transform="translate(1729.99 360)"/><circle class="e" cx="8" cy="8" r="8" transform="translate(1729.99 452)"/><circle class="f" cx="9" cy="9" r="9" transform="translate(1729.99 499)"/><circle class="f" cx="9" cy="9" r="9" transform="translate(1729.99 539)"/><circle class="f" cx="9" cy="9" r="9" transform="translate(1729.99 580)"/><circle class="f" cx="9" cy="9" r="9" transform="translate(1729.99 630)"/><circle class="d" cx="7" cy="7" r="7" transform="translate(1906.99 404)"/><circle class="d" cx="7" cy="7" r="7" transform="translate(1906.99 360)"/><circle class="e" cx="8" cy="8" r="8" transform="translate(1906.99 452)"/><circle class="f" cx="9" cy="9" r="9" transform="translate(1906.99 499)"/><circle class="f" cx="9" cy="9" r="9" transform="translate(1906.99 539)"/><circle class="f" cx="9" cy="9" r="9" transform="translate(1906.99 580)"/><circle class="f" cx="9" cy="9" r="9" transform="translate(1906.99 630)"/><circle class="d" cx="7" cy="7" r="7" transform="translate(748.99 404)"/><circle class="d" cx="7" cy="7" r="7" transform="translate(748.99 360)"/><circle class="e" cx="8" cy="8" r="8" transform="translate(748.99 452)"/><circle class="f" cx="9" cy="9" r="9" transform="translate(748.99 499)"/><circle class="f" cx="9" cy="9" r="9" transform="translate(748.99 539)"/><circle class="f" cx="9" cy="9" r="9" transform="translate(748.99 580)"/><circle class="f" cx="9" cy="9" r="9" transform="translate(748.99 630)"/><circle class="d" cx="7" cy="7" r="7" transform="translate(424.99 404)"/><circle class="d" cx="7" cy="7" r="7" transform="translate(424.99 360)"/><circle class="e" cx="8" cy="8" r="8" transform="translate(424.99 452)"/><circle class="f" cx="9" cy="9" r="9" transform="translate(424.99 499)"/><circle class="f" cx="9" cy="9" r="9" transform="translate(424.99 539)"/><circle class="f" cx="9" cy="9" r="9" transform="translate(424.99 580)"/><circle class="f" cx="9" cy="9" r="9" transform="translate(424.99 630)"/><circle class="d" cx="7" cy="7" r="7" transform="translate(1118.99 404)"/><circle class="d" cx="7" cy="7" r="7" transform="translate(1118.99 360)"/><circle class="e" cx="8" cy="8" r="8" transform="translate(1118.99 452)"/><circle class="f" cx="9" cy="9" r="9" transform="translate(1118.99 499)"/><circle class="f" cx="9" cy="9" r="9" transform="translate(1118.99 539)"/><circle class="f" cx="9" cy="9" r="9" transform="translate(1118.99 580)"/><circle class="f" cx="9" cy="9" r="9" transform="translate(1118.99 630)"/><circle class="d" cx="7" cy="7" r="7" transform="translate(1441.99 404)"/><circle class="d" cx="7" cy="7" r="7" transform="translate(1441.99 360)"/><circle class="e" cx="8" cy="8" r="8" transform="translate(1441.99 452)"/><circle class="f" cx="9" cy="9" r="9" transform="translate(1441.99 499)"/><circle class="f" cx="9" cy="9" r="9" transform="translate(1441.99 539)"/><circle class="f" cx="9" cy="9" r="9" transform="translate(1441.99 580)"/><circle class="f" cx="9" cy="9" r="9" transform="translate(1441.99 630)"/><circle class="d" cx="7" cy="7" r="7" transform="translate(1773.99 404)"/><circle class="d" cx="7" cy="7" r="7" transform="translate(1773.99 360)"/><circle class="e" cx="8" cy="8" r="8" transform="translate(1773.99 452)"/><circle class="f" cx="9" cy="9" r="9" transform="translate(1773.99 499)"/><circle class="f" cx="9" cy="9" r="9" transform="translate(1773.99 539)"/><circle class="f" cx="9" cy="9" r="9" transform="translate(1773.99 580)"/><circle class="f" cx="9" cy="9" r="9" transform="translate(1773.99 630)"/><circle class="d" cx="7" cy="7" r="7" transform="translate(1950.99 404)"/><circle class="d" cx="7" cy="7" r="7" transform="translate(1950.99 360)"/><circle class="e" cx="8" cy="8" r="8" transform="translate(1950.99 452)"/><circle class="f" cx="9" cy="9" r="9" transform="translate(1950.99 499)"/><circle class="f" cx="9" cy="9" r="9" transform="translate(1950.99 539)"/><circle class="f" cx="9" cy="9" r="9" transform="translate(1950.99 580)"/><circle class="f" cx="9" cy="9" r="9" transform="translate(1950.99 630)"/><circle class="d" cx="7" cy="7" r="7" transform="translate(794.99 404)"/><circle class="d" cx="7" cy="7" r="7" transform="translate(794.99 360)"/><circle class="e" cx="8" cy="8" r="8" transform="translate(794.99 452)"/><circle class="f" cx="9" cy="9" r="9" transform="translate(794.99 499)"/><circle class="f" cx="9" cy="9" r="9" transform="translate(794.99 539)"/><circle class="f" cx="9" cy="9" r="9" transform="translate(794.99 580)"/><circle class="f" cx="9" cy="9" r="9" transform="translate(794.99 630)"/><circle class="d" cx="7" cy="7" r="7" transform="translate(470.99 404)"/><circle class="d" cx="7" cy="7" r="7" transform="translate(470.99 360)"/><circle class="e" cx="8" cy="8" r="8" transform="translate(470.99 452)"/><circle class="f" cx="9" cy="9" r="9" transform="translate(470.99 499)"/><circle class="f" cx="9" cy="9" r="9" transform="translate(470.99 539)"/><circle class="f" cx="9" cy="9" r="9" transform="translate(470.99 580)"/><circle class="f" cx="9" cy="9" r="9" transform="translate(470.99 630)"/></g></g></svg>