<svg xmlns="http://www.w3.org/2000/svg" xmlns:xlink="http://www.w3.org/1999/xlink" width="82" height="82" viewBox="0 0 82 82"><defs><style>.a{fill:#2a4058;opacity:0.997;}.b{fill:none;stroke:#0dad69;stroke-linecap:round;stroke-linejoin:round;stroke-width:2px;}.c,.d{stroke:none;}.d{fill:#d5d5d5;}.e{filter:url(#a);}</style><filter id="a" x="0" y="0" width="82" height="82" filterUnits="userSpaceOnUse"><feOffset dy="9" input="SourceAlpha"/><feGaussianBlur stdDeviation="3" result="b"/><feFlood flood-opacity="0.161"/><feComposite operator="in" in2="b"/><feComposite in="SourceGraphic"/></filter></defs><g transform="translate(-98 -32)"><g class="e" transform="matrix(1, 0, 0, 1, 98, 32)"><g class="a" transform="translate(9)"><path class="c" d="M 32 62 C 27.94915008544922 62 24.0205192565918 61.20708084106445 20.3232593536377 59.64326858520508 C 16.75111961364746 58.13238143920898 13.54259014129639 55.96900177001953 10.78680038452148 53.21319961547852 C 8.031000137329102 50.4574089050293 5.86761999130249 47.24887847900391 4.356729984283447 43.67673873901367 C 2.792920112609863 39.9794807434082 2 36.05084991455078 2 32 C 2 27.94915008544922 2.792920112609863 24.0205192565918 4.356729984283447 20.3232593536377 C 5.86761999130249 16.75111961364746 8.031000137329102 13.54259014129639 10.78680038452148 10.78680038452148 C 13.54259014129639 8.031000137329102 16.75111961364746 5.86761999130249 20.3232593536377 4.356729984283447 C 24.0205192565918 2.792920112609863 27.94915008544922 2 32 2 C 36.05084991455078 2 39.9794807434082 2.792920112609863 43.67673873901367 4.356729984283447 C 47.24887847900391 5.86761999130249 50.4574089050293 8.031000137329102 53.21319961547852 10.78680038452148 C 55.96900177001953 13.54259014129639 58.13238143920898 16.75111961364746 59.64326858520508 20.3232593536377 C 61.20708084106445 24.0205192565918 62 27.94915008544922 62 32 C 62 36.91202163696289 60.80617141723633 41.67831039428711 58.45167922973633 46.16648101806641 C 56.01054000854492 50.82403182983398 52.30337905883789 54.76774978637695 47.73062896728516 57.57194900512695 C 43.00680923461914 60.46881103515625 37.56724166870117 62 32 62 Z"/><path class="d" d="M 32 4 C 28.21825790405273 4 24.55176544189453 4.739765167236328 21.10236358642578 6.198741912841797 C 17.76862335205078 7.608787536621094 14.77377700805664 9.628246307373047 12.20101165771484 12.20101165771484 C 9.628246307373047 14.77377700805664 7.608787536621094 17.76862335205078 6.198741912841797 21.10236358642578 C 4.739765167236328 24.55176544189453 4 28.21825790405273 4 32 C 4 35.78174209594727 4.739765167236328 39.44823455810547 6.198741912841797 42.89763641357422 C 7.608787536621094 46.23137664794922 9.628246307373047 49.22622299194336 12.20101165771484 51.79898834228516 C 14.77377700805664 54.37175369262695 17.76862335205078 56.39121246337891 21.10236358642578 57.8012580871582 C 24.55176544189453 59.26023483276367 28.21825790405273 60 32 60 C 37.197998046875 60 42.27602386474609 58.57083511352539 46.68508148193359 55.86701202392578 C 50.95037841796875 53.2513427734375 54.40652847290039 49.57612991333008 56.68058776855469 45.23736572265625 C 58.88318634033203 41.03872680664062 60 36.58503723144531 60 32 C 60 28.21825790405273 59.26023483276367 24.55176544189453 57.8012580871582 21.10236358642578 C 56.39121246337891 17.76862335205078 54.37175369262695 14.77377700805664 51.79898834228516 12.20101165771484 C 49.22622299194336 9.628246307373047 46.23137664794922 7.608787536621094 42.89763641357422 6.198741912841797 C 39.44823455810547 4.739765167236328 35.78174209594727 4 32 4 M 32 0 C 49.6731071472168 0 64 14.3268928527832 64 32 C 64 37.35494232177734 62.68465805053711 42.40268325805664 60.22276306152344 47.09558868408203 C 55.01070404052734 57.03985977172852 44.31816482543945 64 32 64 C 14.3268928527832 64 0 49.6731071472168 0 32 C 0 14.3268928527832 14.3268928527832 0 32 0 Z"/></g></g><path class="b" d="M10.1,21.828C4.314,23.563,4.314,18.936,2,18.357M18.2,25.3V20.822A3.9,3.9,0,0,0,17.109,17.8c3.633-.4,7.45-1.782,7.45-8.1a6.293,6.293,0,0,0-1.735-4.337A5.865,5.865,0,0,0,22.72,1S21.355.6,18.2,2.716a15.479,15.479,0,0,0-8.1,0C6.94.6,5.575,1,5.575,1a5.865,5.865,0,0,0-.1,4.361A6.293,6.293,0,0,0,3.735,9.739c0,6.27,3.818,7.647,7.45,8.1A3.9,3.9,0,0,0,10.1,20.822V25.3" transform="translate(125.5 50.527)"/></g></svg>